# xmcd CD database file
#
# Track frame offsets:
#	150
#	11621
#	26679
#	43361
#	64814
#	77995
#	90951
#	100319
#	118130
#	132835
#	148297
#	162477
#	176620
#	192097
#	208869
#	223474
#	239400
#	257442
#	270218
#	288307
#	299300
#	312789
#
# Disc length: 4409 seconds
#
# Revision: 0
# Processed by: cddbd v1.4PL0 Copyright (c) Steve Scherf et al.
# Submitted via: CDex 1.40Beta6
#
DISCID=50113716
DTITLE=Various Artist - Country Mix
DYEAR=2001
DGENRE=Country
TTITLE0=Billy Ray Cyrus - Ain't Your Dog No More
TTITLE1=Bellamy Brothers - Let Your Love Flow
TTITLE2=Eddie Rabbit - Step By Step
TTITLE3=Alabama - Dancin', Shaggin' On The Boulevard
TTITLE4=Alan Jackson - It Must Be Love
TTITLE5=Conway Twitty - Tight Fittin' Jeans
TTITLE6=Tom Jones - It's Not Unusual
TTITLE7=Eagle - In The City
TTITLE8=Bellamy Brothers - If I Said You Had A Beautiful Body, Woul You Hold
TTITLE8=It Against Me
TTITLE9=Alabama - God Must Have Spent A Little Ore Time On You
TTITLE10=Eddie Rabbit - I Love A Rainy Night
TTITLE11=Bily Ray Cyrus - Words By Heart
TTITLE12=Billy Ray Cyrus - Achy Breaky Heart
TTITLE13=Cleatus T. Judd - First Redneck On The Internet
TTITLE14=Cleatus T. Judd - Any Gal Of Mine
TTITLE15=Cleatus T. Judd - She Got A Butt Bigger Than The Beatles
TTITLE16=Cleatus T. Judd - Goodbye Squirrel
TTITLE17=Cleatus T. Judd - Grandpa Got Run Over By A John Deer
TTITLE18=Cleatus T. Judd - Please Take The Girl
TTITLE19=Cleatus T. Judd - Grundy County Spitting Incident
TTITLE20=Cleatus T. Judd - Indian Inlaw
TTITLE21=Cleatus T. Judd - My Celmate Thinks I'm Sexy
EXTD=
EXTT0=
EXTT1=
EXTT2=
EXTT3=
EXTT4=
EXTT5=
EXTT6=
EXTT7=
EXTT8=
EXTT9=
EXTT10=
EXTT11=
EXTT12=
EXTT13=
EXTT14=
EXTT15=
EXTT16=
EXTT17=
EXTT18=
EXTT19=
EXTT20=
EXTT21=
PLAYORDER=
